<?xml version="1.0" encoding="UTF-8"?>
<svg width="18px" height="16px" viewBox="0 0 18 16" version="1.1" xmlns="http://www.w3.org/2000/svg" xmlns:xlink="http://www.w3.org/1999/xlink">
    <!-- Generator: Sketch 60 (88103) - https://sketch.com -->
    <title>编组</title>
    <desc>Created with Sketch.</desc>
    <g id="本地资源" stroke="none" stroke-width="1" fill="none" fill-rule="evenodd">
        <g id="网络资源" transform="translate(-436.000000, -54.000000)" fill="#FFFFFF" stroke="#333333">
            <g id="编组" transform="translate(437.000000, 55.000000)">
                <path d="M1,0 L4.58578644,0 C4.85100293,-4.87194788e-17 5.10535684,0.10535684 5.29289322,0.292893219 L7,2 L7,2 L15,2 C15.5522847,2 16,2.44771525 16,3 L16,12 C16,12.5522847 15.5522847,13 15,13 L1,13 C0.44771525,13 6.76353751e-17,12.5522847 0,12 L0,1 C-6.76353751e-17,0.44771525 0.44771525,1.01453063e-16 1,0 Z" id="矩形备份"></path>
                <path d="M0,5 L16,5 L16,13 C16,13.5522847 15.5522847,14 15,14 L1,14 C0.44771525,14 6.76353751e-17,13.5522847 0,13 L0,5 L0,5 Z" id="矩形"></path>
            </g>
        </g>
    </g>
</svg>